<svg id="Layer_1" data-name="Layer 1" xmlns="http://www.w3.org/2000/svg" viewBox="0 0 244.84 205.68"><defs><style>.cls-1{fill:#fff;}</style></defs><path class="cls-1" d="M142.11,135.53c-20,11.28-38.62,16.05-41.67,10.66s10.68-18.91,30.64-30.18S169.7,100,172.74,105.34s-10.66,18.9-30.63,30.19M178,104c-4.39-7.76-26.17-3.73-48.66,9s-37.17,29.28-32.8,37,26.17,3.73,48.65-9,37.18-29.3,32.81-37" transform="translate(-15.26 -37.01)"/><path class="cls-1" d="M108.31,180.47a11.21,11.21,0,0,1,1.25-3.62,11.79,11.79,0,0,1,2.42-3,11.56,11.56,0,0,1,3.39-2.09,11.11,11.11,0,0,1,3.89-.79,10.36,10.36,0,0,1,3.74.64,9.72,9.72,0,0,1,3.23,2,9.51,9.51,0,0,1,2.23,3.35,10,10,0,0,1,.65,4.15,10.61,10.61,0,0,1-1.09,4.12,11.61,11.61,0,0,1-2.66,3.51,11.38,11.38,0,0,1-3.94,2.31,10.76,10.76,0,0,1-4.4.57,10.1,10.1,0,0,1-3.91-1.16,9.45,9.45,0,0,1-3-2.51,9.07,9.07,0,0,1-1.67-3.56,9.68,9.68,0,0,1-.16-3.93m-1.06,4.38a10.55,10.55,0,0,0,5.2,6.89,11.24,11.24,0,0,0,4.41,1.35,12.08,12.08,0,0,0,5-.61,13.09,13.09,0,0,0,7.51-6.64,12.07,12.07,0,0,0,1.21-4.69,10.86,10.86,0,0,0-.78-4.69,10.59,10.59,0,0,0-6.2-6,11.5,11.5,0,0,0-4.21-.7,12.41,12.41,0,0,0-4.36.9,12.81,12.81,0,0,0-3.78,2.35,12.69,12.69,0,0,0-4.14,7.4,11.57,11.57,0,0,0,.14,4.42m4.17-3.25.82,3.12-1.85-1Zm4.5-8.12,2,.7-3.1,1.2Zm3.15,5.63a1.78,1.78,0,0,1,.55.39,1.47,1.47,0,0,1,.35.62,1.71,1.71,0,0,1,.08.71,1.78,1.78,0,0,1-.2.69,2,2,0,0,1-.46.58,1.92,1.92,0,0,1-.66.4,2.09,2.09,0,0,1-.72.12,1.6,1.6,0,0,1-.69-.17,1.69,1.69,0,0,1-.55-.41,1.45,1.45,0,0,1-.33-.61,1.72,1.72,0,0,1-.07-.71,1.81,1.81,0,0,1,.22-.68,2.08,2.08,0,0,1,1.07-.95,1.84,1.84,0,0,1,1.41,0m2.88,7.58-1.22,2.18-2.19-1Zm4.39-8.94-1,2.15-1.13-3.12Zm-16.78,8.77a.58.58,0,0,0,.12.25.62.62,0,0,0,.2.16.57.57,0,0,0,.25.08.68.68,0,0,0,.28,0l5.61-2,1.7,5.89a.76.76,0,0,0,.15.28.72.72,0,0,0,.22.17.92.92,0,0,0,.28.09,1.18,1.18,0,0,0,.31-.05l5.11-1.76a.71.71,0,0,0,.28-.16.78.78,0,0,0,.19-.24,1,1,0,0,0,.08-.3.85.85,0,0,0,0-.31l-2-5.9,6-2.16a.85.85,0,0,0,.28-.16.81.81,0,0,0,.17-.24.65.65,0,0,0,.08-.27,1,1,0,0,0,0-.3L127,174.92a.57.57,0,0,0-.15-.22.65.65,0,0,0-.23-.15.88.88,0,0,0-.29-.05,1,1,0,0,0-.29.05l-5.69,2.17-1.7-5.05a.57.57,0,0,0-.13-.21.5.5,0,0,0-.21-.12.53.53,0,0,0-.25-.05.86.86,0,0,0-.27.05l-4.47,1.77a.7.7,0,0,0-.23.15,1.56,1.56,0,0,0-.16.2.89.89,0,0,0-.09.24,1.06,1.06,0,0,0,0,.26l1.47,5-5.37,2a.86.86,0,0,0-.25.14.57.57,0,0,0-.16.22.62.62,0,0,0-.09.26.46.46,0,0,0,0,.26Zm75.13-26.22a3.63,3.63,0,0,0-1.1-1,4.24,4.24,0,0,0-1.43-.52,4.59,4.59,0,0,0-3.1.63,4.28,4.28,0,0,0-1.15,1.05,4,4,0,0,0-.67,1.35,3.78,3.78,0,0,0-.06,1.54,3.52,3.52,0,0,0,.59,1.42,3.63,3.63,0,0,0,1.12,1,4.3,4.3,0,0,0,3.18.5,4.41,4.41,0,0,0,1.55-.66,4.23,4.23,0,0,0,1.12-1.11,3.84,3.84,0,0,0,.6-1.41,3.5,3.5,0,0,0,0-1.51,3.34,3.34,0,0,0-.63-1.36m18.36-3.82a4.35,4.35,0,0,0-2.56-1.39,4,4,0,0,0-1.5,0,3.55,3.55,0,0,0-1.34.55,3.43,3.43,0,0,0-.94,1,3.12,3.12,0,0,0-.45,1.27,3.17,3.17,0,0,0,.12,1.42,3.76,3.76,0,0,0,.73,1.33,4.27,4.27,0,0,0,1.17,1,4.35,4.35,0,0,0,1.47.51,4.15,4.15,0,0,0,1.57,0,3.85,3.85,0,0,0,1.38-.61,3.34,3.34,0,0,0,.91-1,3,3,0,0,0,.4-1.3,3.72,3.72,0,0,0-.19-1.41,4,4,0,0,0-.77-1.27m-13.46-1a3.72,3.72,0,0,0,1.39-.55,3.56,3.56,0,0,0,1-.94,3.1,3.1,0,0,0,.49-1.19,3.06,3.06,0,0,0-.74-2.49,3.52,3.52,0,0,0-1.06-.85,4.34,4.34,0,0,0-1.34-.46,4.48,4.48,0,0,0-1.46,0,4.34,4.34,0,0,0-1.35.5,3.41,3.41,0,0,0-1,.89,3.26,3.26,0,0,0-.55,1.16,2.68,2.68,0,0,0,0,1.32,3.09,3.09,0,0,0,.61,1.23,3.5,3.5,0,0,0,1.07.91,4.35,4.35,0,0,0,1.38.48,4,4,0,0,0,1.55,0m7.12,11.85a4.37,4.37,0,0,0-1.22-1.05,4.42,4.42,0,0,0-1.5-.54,4.33,4.33,0,0,0-1.64.05,4,4,0,0,0-1.49.65,4.18,4.18,0,0,0-1.08,1.14,4.09,4.09,0,0,0-.56,1.48,4.16,4.16,0,0,0,.06,1.68,4.29,4.29,0,0,0,2,2.68,4.32,4.32,0,0,0,1.57.59,4.6,4.6,0,0,0,1.73-.06,4.06,4.06,0,0,0,1.53-.75,3.88,3.88,0,0,0,1.06-1.22,4,4,0,0,0,.5-1.52,4.13,4.13,0,0,0-.15-1.66,4.4,4.4,0,0,0-.77-1.47m8.25-7.67a3.88,3.88,0,0,1-1.59,2.85,4.67,4.67,0,0,1-1.66.75,5.22,5.22,0,0,1-1.93,0,5.81,5.81,0,0,1-1.78-.63,5.54,5.54,0,0,1-1.43-1.21,4.64,4.64,0,0,1-.88-1.62,4,4,0,0,1-.14-1.73,3.72,3.72,0,0,1,.56-1.53,4.37,4.37,0,0,1,1.14-1.17,4.57,4.57,0,0,1,1.62-.66,5.25,5.25,0,0,1,1.81,0,5.52,5.52,0,0,1,1.7.58,5.45,5.45,0,0,1,1.4,1.09,5.11,5.11,0,0,1,.93,1.54,4.18,4.18,0,0,1,.25,1.72m-6.32,11.38a5,5,0,0,1-.58,1.86,5,5,0,0,1-3.15,2.41,5,5,0,0,1-2.11.08,5.15,5.15,0,0,1-1.93-.73,5.24,5.24,0,0,1-2.37-3.27,4.91,4.91,0,0,1-.06-2.05,4.77,4.77,0,0,1,.69-1.79,4.63,4.63,0,0,1,1.31-1.37,4.8,4.8,0,0,1,1.8-.79,4.92,4.92,0,0,1,2-.07A5.4,5.4,0,0,1,196,166a5.28,5.28,0,0,1,2.41,3,5.14,5.14,0,0,1,.19,2M185,154.9a4,4,0,0,1-.74-1.5,3.64,3.64,0,0,1,0-1.61,3.7,3.7,0,0,1,.67-1.4,4,4,0,0,1,1.21-1.07,4.64,4.64,0,0,1,1.63-.62,5.32,5.32,0,0,1,1.78,0,5,5,0,0,1,1.61.55,4.4,4.4,0,0,1,1.28,1,3.94,3.94,0,0,1,.79,1.43,3.43,3.43,0,0,1,.11,1.58,3.62,3.62,0,0,1-.59,1.47,4.08,4.08,0,0,1-1.18,1.16,4.61,4.61,0,0,1-1.69.67,5,5,0,0,1-1.88,0,4.87,4.87,0,0,1-1.69-.6A4.4,4.4,0,0,1,185,154.9m1.28,8.81a4.79,4.79,0,0,1-.71,1.72,5.41,5.41,0,0,1-5.31,2.24,4.93,4.93,0,0,1-1.82-.68,4.41,4.41,0,0,1-1.36-1.29,4.29,4.29,0,0,1-.71-1.73,4.19,4.19,0,0,1,.1-1.87,4.62,4.62,0,0,1,.81-1.65,5.36,5.36,0,0,1,1.38-1.26,5.49,5.49,0,0,1,3.75-.76,5.11,5.11,0,0,1,1.73.62,4.7,4.7,0,0,1,1.34,1.17,4.51,4.51,0,0,1,.77,1.64,4.13,4.13,0,0,1,0,1.85m-11.35,27.73a7.48,7.48,0,0,0,.23,1A7.94,7.94,0,1,0,190.4,188a7.55,7.55,0,0,0-.62-1.53,7.85,7.85,0,0,1,1.09,2.32,8.14,8.14,0,0,1-15.63,4.54,9.47,9.47,0,0,1-.31-1.92m5.94-7.78a6.18,6.18,0,0,1,6.72,2.32,8.38,8.38,0,0,0-11.16,3.24,6.18,6.18,0,0,1,4.44-5.56m-9.21,8.52a66.29,66.29,0,0,0-20.73,6c-.17-.33-.34-.64-.53-.94a73.1,73.1,0,0,1,10.32-4,74.67,74.67,0,0,1,10.88-2.13,9.64,9.64,0,0,0,.06,1.08M158.6,166.73c1.7-.35,3.42-.61,5.16-.81a1.07,1.07,0,0,1,1.21.94c0,.28,0,.55.08.82a1.09,1.09,0,0,1-1,1.16c-1.66.19-3.29.45-4.92.76a1.05,1.05,0,0,1-1.26-.81c-.06-.27-.12-.53-.19-.81a1.07,1.07,0,0,1,.88-1.25m-15.44,44.4a8.13,8.13,0,0,1-10.08-5.54,9.55,9.55,0,0,1-.33-2.23,9.65,9.65,0,0,0,.27,1.32,7.94,7.94,0,1,0,15.25-4.41,7.4,7.4,0,0,0-.48-1.27,8.35,8.35,0,0,1,.92,2.06,8.13,8.13,0,0,1-5.55,10.07m-4.42-15.24a6.18,6.18,0,0,1,6.73,2.32,8.41,8.41,0,0,0-11.17,3.24,6.17,6.17,0,0,1,4.44-5.56m-3.59-14.13a15.72,15.72,0,0,1-1.58,6.32,16.81,16.81,0,0,1-4.09,5.42,17.34,17.34,0,0,1-6.14,3.54c-.19.07-.39.12-.57.18a16.74,16.74,0,0,1-6.23.58,15,15,0,0,1-5.9-1.9,13.85,13.85,0,0,1-6.71-9.25,15.12,15.12,0,0,1-.07-5.77,16.59,16.59,0,0,1,1.94-5.22,18.68,18.68,0,0,1,1.21-1.83,16.87,16.87,0,0,0-.92,1.45,15.78,15.78,0,0,0-1.84,5.06,14.18,14.18,0,0,0,.09,5.58,13.4,13.4,0,0,0,6.45,9,14.06,14.06,0,0,0,5.67,1.85,15.34,15.34,0,0,0,6.51-.71,16.65,16.65,0,0,0,5.9-3.4,16.43,16.43,0,0,0,3.91-5.26,15.28,15.28,0,0,0,1.5-6.12,14.56,14.56,0,0,0-1.13-6.05,13.59,13.59,0,0,0-8.12-7.49,15,15,0,0,0-1.92-.51,14.6,14.6,0,0,1,2.45.6,14.24,14.24,0,0,1,4.9,2.82,13.7,13.7,0,0,1,3.52,4.88,14.16,14.16,0,0,1,1.17,6.24m-24.08-8.91a13.6,13.6,0,0,1,3.89-2.41,12.52,12.52,0,0,1,4.45-.92,12,12,0,0,1,4.32.7,11.1,11.1,0,0,1,3.74,2.29,10.75,10.75,0,0,1,2.64,3.84,11.45,11.45,0,0,1,.81,4.82,12.47,12.47,0,0,1-1.24,4.82A13.34,13.34,0,0,1,122,192.8a12.43,12.43,0,0,1-5.13.63,11.53,11.53,0,0,1-4.54-1.4,11.21,11.21,0,0,1-3.41-2.95A11.09,11.09,0,0,1,107,185a11.7,11.7,0,0,1-.14-4.52,13,13,0,0,1,1.47-4.14,13.44,13.44,0,0,1,2.76-3.44m38.32-.4c-1.55.59-3.07,1.26-4.56,2a1.08,1.08,0,0,1-1.44-.47c-.12-.24-.25-.48-.37-.73a1.06,1.06,0,0,1,.52-1.44c1.56-.77,3.17-1.46,4.79-2.08a1.05,1.05,0,0,1,1.4.6c.1.26.2.51.29.77a1.09,1.09,0,0,1-.63,1.37m97.55-64.93a17.41,17.41,0,0,0,9.52-8.68,102.55,102.55,0,0,1-11.53,1.63,62.15,62.15,0,0,0,13.64-8,79.91,79.91,0,0,1-12.07,5.6,18.31,18.31,0,0,0,7.85-11.9,84.35,84.35,0,0,1-9.55,4.13A62.83,62.83,0,0,0,256.1,78.1,79.84,79.84,0,0,1,243.54,89c3.66-3.61,6.21-8.7,6.3-16.24a80,80,0,0,1-8.08,7,62.16,62.16,0,0,0,8.16-16.38,79.12,79.12,0,0,1-9.52,15c2.66-4.85,4-11,2.78-19a92.83,92.83,0,0,1-5.77,9.33A63,63,0,0,0,242,51.81a78.87,78.87,0,0,1-6.79,17c1.78-6.1,2.06-13.31-.47-21.77A119,119,0,0,1,231,58.87a61.5,61.5,0,0,0-.83-20.39A78.17,78.17,0,0,1,229,58a44.46,44.46,0,0,0-3.94-21,184.27,184.27,0,0,1-4,24.71,36.86,36.86,0,0,0-2.06-6c0,10.87-4,20.07-6.29,23.6a11.37,11.37,0,0,0-2.16,6.34c-.67-2.16.37-7.26.37-7.26-3.72,10.23-3.36,10.28,4.4,20.63a15.12,15.12,0,0,1,3.14,11.57c-1.33,6.62-7.2,11.63-9.14,14.11a5.85,5.85,0,0,0-1.1,2.38,17,17,0,0,1,1.64-9.31,39.27,39.27,0,0,0-6.65,26c-6.19-5-12.76-6.71-19.24-4.83-.61.18-1.24.4-1.86.65a1,1,0,0,0-.59.6c7.07-1.69,14.42.18,21.32,5.46.22.16.44.33.65.51,0,.2.08.42.1.64-9-7.15-19.45-9.19-30.15-2.23-.74.48-1.31.87-1.87,1.25,1.12,12.21.7,22.86-1.19,30.79a27.75,27.75,0,0,1-4.69,10.77c5.05-7.12,6.69-22.06,4.83-40.83-2.4,1.38-6,2.63-21.33,7.07s-19,5.33-21.79,5.45c8.46,16.85,17.85,28.57,25.94,31.89a27.63,27.63,0,0,1-9.73-6.58c-5.85-5.69-11.9-14.46-17.5-25.37l-2.25-.06c-13.1-.14-20.93,7.61-24.56,18.93-.09-.21-.18-.41-.25-.61.17-.55.36-1.12.56-1.65,3-8.16,8.21-13.68,15.08-16a1,1,0,0,0-.81-.19,16.31,16.31,0,0,0-1.92.46C105.26,161.71,100.5,166.93,98,175A39.31,39.31,0,0,0,78.2,156a17,17,0,0,1,6.37,7,5.85,5.85,0,0,0-2.21-1.42c-3-1-10.61-2.14-15.26-7A15,15,0,0,1,63.55,143c1-12.89,1.28-13.14-7.34-19.78,0,0,3.62,3.77,4.2,5.94A11.34,11.34,0,0,0,55.2,125c-3.86-1.73-12.16-7.37-18-16.56a35.39,35.39,0,0,0,1.5,6.21A184.23,184.23,0,0,1,22.13,95.92a44.46,44.46,0,0,0,7.94,19.85A77.52,77.52,0,0,1,18.66,99.85a61.47,61.47,0,0,0,10.21,17.67,123.1,123.1,0,0,1-9.57-8C21.7,118,25.8,124,30.58,128.17a78.51,78.51,0,0,1-14.81-10.69,62.65,62.65,0,0,0,12.89,11.75,92.55,92.55,0,0,1-9.88-4.79c3.27,7.46,7.71,11.93,12.55,14.61a80,80,0,0,1-16.07-7.56A62.56,62.56,0,0,0,30.93,141a81.89,81.89,0,0,1-10.59-1.61c4.12,6.32,9,9.25,14,10.35a80.12,80.12,0,0,1-16.43-2.46A62.64,62.64,0,0,0,34,151.48a83.83,83.83,0,0,1-10.29,1.64,18.33,18.33,0,0,0,13,5.84,81.72,81.72,0,0,1-13.19,1.74,61.93,61.93,0,0,0,15.79-.56,101,101,0,0,1-10.61,4.8,17.46,17.46,0,0,0,12.69,2.23,80.46,80.46,0,0,1-12.9,4.21,62.07,62.07,0,0,0,15.7-3.52,105,105,0,0,1-9.06,6.47,19.19,19.19,0,0,0,14.47-1.55,80.11,80.11,0,0,1-13.15,7.65,62.55,62.55,0,0,0,13.1-5.63c-3.81,4-6.75,6.46-6.75,6.46A21.2,21.2,0,0,0,56,177.81,64,64,0,0,1,45.8,186.6a50.31,50.31,0,0,0,11.92-8.37,71.07,71.07,0,0,1-6.11,7.7,21.25,21.25,0,0,0,13.11-5.52,50.74,50.74,0,0,1-9.54,9.34,40.2,40.2,0,0,0,10.61-8.52,49.56,49.56,0,0,1-4.4,7.62c5.49-1,9.2-3.23,11.63-6.17A51.8,51.8,0,0,1,67.28,191a40.57,40.57,0,0,0,7.42-8.9A36,36,0,0,1,72,190.55c5.67-1.35,8.8-4,10.28-7.34a53,53,0,0,1-3,8.8,40.85,40.85,0,0,0,4.17-9,31.1,31.1,0,0,1-.33,8.53c5.55-1.65,7.73-4.73,7.91-8.55a51,51,0,0,1,.53,10.21,41.21,41.21,0,0,0,.68-9.3,38.68,38.68,0,0,1,2.18,8.21,7.52,7.52,0,0,0,2.71-2.75c-.19,2.22-.27,4.51-.25,6.84a73.9,73.9,0,0,0,2.5,7.23c-.06.51-.12.77-.12.77l.18-.64a83.13,83.13,0,0,0,9.15,16.35c4.42,6.52,7.64,11.27,5.64,19.41,3.51,2.68,7,3.87,10.08,3.18,3.32-.74,5.14-5.28,6.49-10.62-.36-1.06-.47-6.37-.33-10.81a53.38,53.38,0,0,1,1.11-10.41,12,12,0,0,1-2.32-4.38,11.66,11.66,0,0,1,7.71-14.56,11.4,11.4,0,0,1,11.37,3.11,11.27,11.27,0,0,0-16,15.74c-1.7,4.82-1.78,19.37-1.2,20.14.86-3.64,1.55-7.52,2.39-10.78.11-.44.23-.85.34-1.26a.66.66,0,0,0,0-.15c0-.1.06-.21.1-.31s0-.12,0-.18.06-.2.1-.3a.78.78,0,0,0,0-.18c.06-.17.11-.35.18-.52a1.15,1.15,0,0,1,.06-.17c0-.08.06-.17.08-.24a1.8,1.8,0,0,0,.08-.21l.09-.22.08-.2a2,2,0,0,1,.1-.21,1.15,1.15,0,0,1,.1-.23,1.89,1.89,0,0,1,.09-.21l.15-.31.08-.14a1.05,1.05,0,0,1,.12-.21,1.09,1.09,0,0,1,.08-.15,1.6,1.6,0,0,1,.11-.19l.08-.13.15-.22.07-.09c.09-.13.19-.25.29-.37a11.27,11.27,0,0,0,16-8.82c1.84-.79,3.71-1.54,5.53-2.21a.2.2,0,0,1,.08,0c.44-.16.87-.32,1.3-.46l.05,0,1.19-.4.16-.06c.39-.14.77-.25,1.15-.37l.22-.07,1.13-.35,1.15-.31.2-.06,1.2-.31.1,0c2.67-.66,5.64-1.25,8.61-1.73a11.26,11.26,0,0,0,18.2-1.09l.5.16h0l.29.13h0l.2.09a.75.75,0,0,0,.13.06,2.25,2.25,0,0,1,.21.12l.13.07.21.12.09.05c.27.17.54.35.82.55l.09.07.26.18.09.07q.62.47,1.26,1l0,0c.1.1.21.18.32.28h0c.35.31.69.62,1.05,1h0c2.44,2.3,5.11,5.21,7.78,7.81.08-.95-7.8-13.2-11.81-16.37a11.44,11.44,0,0,0-.34-4.63,11.27,11.27,0,0,0-21.24-1.18,11.32,11.32,0,0,1,7.63-7.63,11.66,11.66,0,0,1,14.29,8.18,11.91,11.91,0,0,1,.37,5,54.55,54.55,0,0,1,6.47,8.15c2.5,3.67,5.23,8.21,5.5,9.3,4,3.79,8,6.66,11.17,5.49,2.94-1,5.3-3.95,6.83-8.11-6-5.79-5.85-11.51-5.61-19.39.21-6.72.45-14.89-2.77-26.18q-1.65-2.67-3.45-5.1a7.2,7.2,0,0,0,2.67.39,38.83,38.83,0,0,1-2.55-8.1,40.69,40.69,0,0,0,5.54,7.5,52.93,52.93,0,0,1-5-8.91c2.21,3.14,5.7,4.58,11.27,3a31.4,31.4,0,0,1-4.85-7,41,41,0,0,0,8.35,5.36,53.76,53.76,0,0,1-7.25-5.83c3,2,7.1,2.6,12.61.69a36.59,36.59,0,0,1-6.82-5.63,40.92,40.92,0,0,0,11,3.55,52.41,52.41,0,0,1-9.32-4c3.62,1.18,8,1.09,13.13-1a50.87,50.87,0,0,1-7.81-4.06,40.26,40.26,0,0,0,13.54,1.5,50.24,50.24,0,0,1-13.06-2.78,21.4,21.4,0,0,0,14-2.34,74.66,74.66,0,0,1-9.28-3.25,50.35,50.35,0,0,0,14.55.7,63.27,63.27,0,0,1-13.33-2,21.19,21.19,0,0,0,13-4.14s-3.81-.52-9.17-1.84a63,63,0,0,0,14.09-2.26,79.4,79.4,0,0,1-15.21.58,19.33,19.33,0,0,0,13.07-6.43A105.19,105.19,0,0,1,245,109.6a62.77,62.77,0,0,0,15.15-5.43,82.09,82.09,0,0,1-13.16,3.35m-150,91c.08,1.9.23,3.83.43,5.76a64.85,64.85,0,0,0,2.29,11.53s0,0,0,0a2.78,2.78,0,0,0,.12.38c.09.29.17.58.26.86s.1.29.14.44l.28.85.15.41.3.85.15.38.32.85.14.36c.11.28.23.57.36.86,0,.1.09.21.13.31.11.3.24.58.38.87a1.75,1.75,0,0,0,.13.28c.12.29.26.58.39.87l.12.23c.14.3.29.6.43.89l.1.19c.15.31.31.62.46.91a1.19,1.19,0,0,0,.09.15l.49.92.06.1.54.93,0,.06.58,1h0a37.49,37.49,0,0,0,8,9.3c4.12-13.86-10.68-15.37-16.82-40.46m120.59-35c8.26,24.48-3.45,33.67,7.46,43.19,3.1-9.08,2.4-23.7-4.74-38.09q-1.29-2.62-2.72-5.1" transform="translate(-15.26 -37.01)"/></svg>