<svg id="Layer_1" data-name="Layer 1" xmlns="http://www.w3.org/2000/svg" viewBox="0 0 89.88 102.2"><defs><style>.cls-1{fill:#fff;}</style></defs><path class="cls-1" d="M100,48,97.18,15.62A13,13,0,0,0,83.08,3.78L50.74,6.61a13,13,0,0,0-11.83,14.1l1.4,16c-.21.15-.42.3-.62.47L14.82,58.09a13,13,0,0,0-1.6,18.33l20.86,24.87a13,13,0,0,0,14.44,3.86,12.72,12.72,0,0,0,3.9-2.26L77.29,82a13,13,0,0,0,1.6-18.34l-.64-.77,9.93-.87a12.85,12.85,0,0,0,3.31-.73A13,13,0,0,0,100,48Zm-31-19a5.41,5.41,0,1,1-4.92,5.86A5.41,5.41,0,0,1,69,28.94ZM54.34,16.65a5.41,5.41,0,1,1-4.92,5.86A5.41,5.41,0,0,1,54.34,16.65Zm20.12,62L49.6,99.53a8.64,8.64,0,0,1-12.15-1.06L16.58,73.6a8.66,8.66,0,0,1,1.06-12.15L42.51,40.58a8.64,8.64,0,0,1,12.15,1.07L75.53,66.51A8.63,8.63,0,0,1,74.46,78.66ZM84.58,52a5.41,5.41,0,1,1,4.92-5.86A5.41,5.41,0,0,1,84.58,52Z" transform="translate(-10.18 -3.73)"/><path class="cls-1" d="M31.14,64.91a5.41,5.41,0,1,0-.66,7.62A5.41,5.41,0,0,0,31.14,64.91Z" transform="translate(-10.18 -3.73)"/><path class="cls-1" d="M39.84,75.27a5.41,5.41,0,1,0-.67,7.63A5.42,5.42,0,0,0,39.84,75.27Z" transform="translate(-10.18 -3.73)"/><path class="cls-1" d="M40.91,85a5.41,5.41,0,1,0,7.62.66A5.41,5.41,0,0,0,40.91,85Z" transform="translate(-10.18 -3.73)"/><path class="cls-1" d="M51.2,55.15a5.41,5.41,0,1,0-7.62-.67A5.41,5.41,0,0,0,51.2,55.15Z" transform="translate(-10.18 -3.73)"/><path class="cls-1" d="M60.56,57.89a5.41,5.41,0,1,0-.67,7.62A5.41,5.41,0,0,0,60.56,57.89Z" transform="translate(-10.18 -3.73)"/><path class="cls-1" d="M61.63,67.58a5.41,5.41,0,1,0,7.62.67A5.41,5.41,0,0,0,61.63,67.58Z" transform="translate(-10.18 -3.73)"/></svg>