<svg id="Layer_1" data-name="Layer 1" xmlns="http://www.w3.org/2000/svg" viewBox="0 0 96.36 85.54"><defs><style>.cls-1{fill:#fff;}</style></defs><path class="cls-1" d="M89.92,52.38c8-7.89,13.85-19.48,10.34-20.58a44.41,44.41,0,0,1-9,11,81.39,81.39,0,0,0,7.8-11c2.18-4.09,3.18-9.69.46-9.77-1.84,3.12-6.19,10.11-10,13.44,0,0,4-5.58,8.36-13,2-3.19,5.62-14,.76-10.35C87.14,20.71,76.65,37,80.35,38.25c2.94,1,8.16,6,7.62,12.29-5.17-4.68-9.51-6.67-12.91-5.89a14.24,14.24,0,0,0-3.8,1.43,19.17,19.17,0,0,0-4.86,4.11,18,18,0,0,1-4.66,4A18.35,18.35,0,0,1,55.92,56a19.24,19.24,0,0,0-6.07,1.91,14.48,14.48,0,0,0-3.23,2.46c-2.47,2.46-3.1,7.18-1.9,14.05-5.58-2.88-7-10-6.34-13,.88-3.81-18.46-3.59-31.82,1.47-5.73,2.14,5.37,4.9,9.16,4.88,8.61.25,15.45-.15,15.45-.15-4.87,1.49-13.1,1.44-16.72,1.33-1.39,2.35,3.88,4.49,8.51,4.83a81.54,81.54,0,0,0,13.49-.72,44.54,44.54,0,0,1-14.14,1.78c-.94,3.55,12,4.8,22.93,2.21a64.77,64.77,0,0,0,4.92,14.24c1.75,3.5,4,4.82,5.51,5.3A6.65,6.65,0,0,0,61,96a11.58,11.58,0,0,0,5-6.5c2.17-5.07,4.21-9.16,8.81-11.7s9.15-2.09,14.6-1.22a11.73,11.73,0,0,0,8.16-.75,6.69,6.69,0,0,0,3.34-4.19c.42-1.57.48-4.14-1.55-7.49A64.54,64.54,0,0,0,89.92,52.38Zm6.71,21.76a9.76,9.76,0,0,1-6.88.56c-5.21-.84-10.54-1.53-15.88,1.41s-7.59,7.83-9.66,12.69a9.79,9.79,0,0,1-4.13,5.52c-2.77,1.53-6,.47-8.23-3.91-2.79-5.13-9-23.67-3.9-28.71a12.73,12.73,0,0,1,2.82-2.15c3.79-2.09,7.5-1.32,11.89-3.75s5.72-6,9.51-8.06a12.72,12.72,0,0,1,3.32-1.24c7-1.6,19.36,13.51,22.22,18.59C100.25,69.27,99.4,72.61,96.63,74.14Z" transform="translate(-4.95 -11.34)"/><path class="cls-1" d="M79.91,62h0a2.24,2.24,0,0,0,2.16,3.92h0A2.23,2.23,0,1,0,79.91,62Z" transform="translate(-4.95 -11.34)"/><path class="cls-1" d="M77.9,58.31a2.24,2.24,0,1,0-2.16-3.92h0a2.23,2.23,0,0,0,2.16,3.91Z" transform="translate(-4.95 -11.34)"/><path class="cls-1" d="M74.05,60.25h0a2.24,2.24,0,0,0,2.16,3.92h0a2.24,2.24,0,1,0-2.16-3.92Z" transform="translate(-4.95 -11.34)"/><path class="cls-1" d="M81.6,56.09h0A2.24,2.24,0,0,0,83.76,60h0a2.23,2.23,0,1,0-2.16-3.91Z" transform="translate(-4.95 -11.34)"/><path class="cls-1" d="M61.82,68.08a.51.51,0,0,0-.29-.23.53.53,0,0,0-.37,0l-2.8,1.55-1.54-2.8a.5.5,0,0,0-.29-.23.47.47,0,0,0-.37,0L55,67.07l-1.14.63a.49.49,0,0,0-.24.29.48.48,0,0,0,.05.37l1.54,2.8-2.8,1.54a.51.51,0,0,0-.23.29.48.48,0,0,0,0,.37l1.25,2.26a.44.44,0,0,0,.29.23.48.48,0,0,0,.37,0L57,74.27l1.54,2.8a.55.55,0,0,0,.29.23.52.52,0,0,0,.37,0l1.15-.63L61.43,76a.49.49,0,0,0,.24-.29.48.48,0,0,0-.05-.37l-1.54-2.8L62.88,71a.55.55,0,0,0,.23-.29.47.47,0,0,0,0-.37Z" transform="translate(-4.95 -11.34)"/><path class="cls-1" d="M46.42,53a51.88,51.88,0,0,0,11.93-5A52.08,52.08,0,0,0,68.9,40.54c3.24-3.1,4.33-5.67,3.24-7.64S68.3,30.48,64,31.56a52.41,52.41,0,0,0-11.93,5A52.17,52.17,0,0,0,41.46,44c-3.23,3.11-4.32,5.68-3.23,7.65S42.07,54,46.42,53Zm6.51-14.77c8.45-4.66,16.31-6.62,17.55-4.36s-4.6,7.85-13.05,12.51S41.13,53,39.89,50.7,44.49,42.84,52.93,38.18Z" transform="translate(-4.95 -11.34)"/></svg>